<svg id="Layer_1" data-name="Layer 1" xmlns="http://www.w3.org/2000/svg" viewBox="0 0 24 14.01"><defs><style>.cls-1{fill:#fff;}</style></defs><title>android</title><path class="cls-1" d="M24,19H0a13.68,13.68,0,0,1,2.21-6.07A11.22,11.22,0,0,1,5.87,9.4l.41-.23-2-3.41a.51.51,0,0,1,.17-.7.51.51,0,0,1,.69.17h0L7.2,8.74A12.72,12.72,0,0,1,12,7.84a12.27,12.27,0,0,1,4.75.9l2.07-3.5a.5.5,0,0,1,.68-.18h0a.5.5,0,0,1,.16.7l-2,3.42.5.28a11.31,11.31,0,0,1,3.63,3.62A14.43,14.43,0,0,1,24,19Zm-7.5-4.48a1,1,0,1,0,1-1A1,1,0,0,0,16.5,14.52Zm-11,0a1,1,0,1,0,1-1A1,1,0,0,0,5.5,14.52Z" transform="translate(0 -4.99)"/></svg>