<svg id="Layer_1" data-name="Layer 1" xmlns="http://www.w3.org/2000/svg" viewBox="0 0 306.95 512"><defs><style>.cls-1{fill:#fff;}</style></defs><title>programmer</title><path class="cls-1" d="M202.43,386.72v79.57a24.12,24.12,0,0,0,48.23,0V386.72Z" transform="translate(-102.52)"/><path class="cls-1" d="M261.07,386.72v79.57a24.11,24.11,0,0,0,48.22,0V386.72Z" transform="translate(-102.52)"/><path class="cls-1" d="M144.5,153.93,114.55,202.1a20.1,20.1,0,0,0,1,22.73c26.08,34.5,29.37,38.87,30,39.62C145.55,264.45,144.45,239.84,144.5,153.93Z" transform="translate(-102.52)"/><path class="cls-1" d="M400.36,152.87,358.45,46.2A20.1,20.1,0,0,0,321,60.9l18.09,46c-14.66-8.28-22.71-10.35-29.23-10.35H201.82A47.65,47.65,0,0,0,159.22,123c6.51-2.92,4.31-2.17,77-2.17H342.64a24.88,24.88,0,0,1,24.86,24.85v29c2.3,1.76,6.64,5.63,14.16,5.63a20.1,20.1,0,0,0,18.7-27.44Z" transform="translate(-102.52)"/><path class="cls-1" d="M386.64,313.27v-.16h-.85c-1.69-.31-35-.48-35-.48V280.79a24.78,24.78,0,0,1-8.11,1.36H329.5a31.08,31.08,0,0,1,5.81,30.48c-.05.16-.1.32-.16.48h-19.5a14.5,14.5,0,0,0-9.83-25.17H277.77V265.46h64.87a8.16,8.16,0,0,0,8.16-8.16V145.71a8.16,8.16,0,0,0-8.16-8.16H169.35a8.15,8.15,0,0,0-8.15,8.16V257.3a8.15,8.15,0,0,0,8.15,8.16h64.88v22.48h-28a14.5,14.5,0,0,0-9.83,25.17h-19.5c-.06-.16-.11-.32-.16-.48a31.08,31.08,0,0,1,5.81-30.48H169.36a25,25,0,0,1-8.84-1.62v32.1s-32.62.17-34.31.48h-.44v.08a28.93,28.93,0,0,0-23.25,28.32v156a14.52,14.52,0,0,0,29,0v-128H380.45v128a14.52,14.52,0,1,0,29,0v-156A28.94,28.94,0,0,0,386.64,313.27ZM256,227.73a23.6,23.6,0,1,1,23.6-23.6A23.61,23.61,0,0,1,256,227.73Z" transform="translate(-102.52)"/><circle class="cls-1" cx="153.33" cy="41.65" r="41.65"/></svg>